{
  "accessors": [
    {
      "bufferView": 2,
      "componentType": 5126,
      "count": 4783,
      "max": [
        16.77531623840332,
        45.7772102355957,
        45.723480224609375
      ],
      "min": [
        -16.61724281311035,
        0.0189992506057024,
        -68.19668579101563
      ],
      "type": "VEC3"
    },
    {
      "bufferView": 2,
      "byteOffset": 57396,
      "componentType": 5126,
      "count": 4783,
      "max": [
        0.9998908042907715,
        0.999903678894043,
        0.9998287558555603
      ],
      "min": [
        -0.9997902512550354,
        -0.9999250173568726,
        -0.9994722604751587
      ],
      "type": "VEC3"
    },
    {
      "bufferView": 3,
      "componentType": 5126,
      "count": 4783,
      "max": [
        0.9999760985374451,
        0.999991238117218,
        0.9999062418937683,
        1.0
      ],
      "min": [
        -0.9999337196350098,
        -0.9999892711639404,
        -0.9997486472129822,
        -1.0
      ],
      "type": "VEC4"
    },
    {
      "bufferView": 1,
      "componentType": 5126,
      "count": 4783,
      "max": [
        0.9900000095367432,
        0.9849720001220703
      ],
      "min": [
        0.009999999776482582,
        0.008285999298095703
      ],
      "type": "VEC2"
    },
    {
      "bufferView": 1,
      "byteOffset": 38264,
      "componentType": 5126,
      "count": 4783,
      "max": [
        0.9900000095367432,
        0.9849720001220703
      ],
      "min": [
        0.009999999776482582,
        0.008285999298095703
      ],
      "type": "VEC2"
    },
    {
      "bufferView": 0,
      "componentType": 5125,
      "count": 23784,
      "type": "SCALAR"
    }
  ],
  "asset": {
    "extras": {
      "author": "hendrikReyneke (https://sketchfab.com/hendrikReyneke)",
      "license": "CC-BY-4.0 (http://creativecommons.org/licenses/by/4.0/)",
      "source": "https://sketchfab.com/3d-models/baby-lion-3a97e7bf7c8e4717908c0bb764618de6",
      "title": "Baby- Lion"
    },
    "generator": "Sketchfab-12.68.0",
    "version": "2.0"
  },
  "bufferViews": [
    {
      "buffer": 0,
      "byteLength": 95136,
      "name": "floatBufferViews",
      "target": 34963
    },
    {
      "buffer": 0,
      "byteLength": 76528,
      "byteOffset": 95136,
      "byteStride": 8,
      "name": "floatBufferViews",
      "target": 34962
    },
    {
      "buffer": 0,
      "byteLength": 114792,
      "byteOffset": 171664,
      "byteStride": 12,
      "name": "floatBufferViews",
      "target": 34962
    },
    {
      "buffer": 0,
      "byteLength": 76528,
      "byteOffset": 286456,
      "byteStride": 16,
      "name": "floatBufferViews",
      "target": 34962
    }
  ],
  "buffers": [
    {
      "byteLength": 362984,
      "uri": "scene.bin"
    }
  ],
  "images": [
    {
      "uri": "textures/Baby_Lion_Material_baseColor.png"
    },
    {
      "uri": "textures/Baby_Lion_Material_normal.png"
    }
  ],
  "materials": [
    {
      "doubleSided": true,
      "name": "Baby_Lion_Material",
      "normalTexture": {
        "index": 1
      },
      "pbrMetallicRoughness": {
        "baseColorTexture": {
          "index": 0
        },
        "metallicFactor": 0.0
      }
    }
  ],
  "meshes": [
    {
      "name": "Object_0",
      "primitives": [
        {
          "attributes": {
            "NORMAL": 1,
            "POSITION": 0,
            "TANGENT": 2,
            "TEXCOORD_0": 3,
            "TEXCOORD_1": 4
          },
          "indices": 5,
          "material": 0,
          "mode": 4
        }
      ]
    }
  ],
  "nodes": [
    {
      "children": [
        1
      ],
      "matrix": [
        1.0,
        0.0,
        0.0,
        0.0,
        0.0,
        2.220446049250313e-16,
        -1.0,
        0.0,
        0.0,
        1.0,
        2.220446049250313e-16,
        0.0,
        0.0,
        0.0,
        0.0,
        1.0
      ],
      "name": "Sketchfab_model"
    },
    {
      "children": [
        2
      ],
      "name": "root"
    },
    {
      "children": [
        3
      ],
      "matrix": [
        1.0,
        0.0,
        0.0,
        0.0,
        0.0,
        2.220446049250313e-16,
        1.0,
        0.0,
        0.0,
        -1.0,
        2.220446049250313e-16,
        0.0,
        0.0,
        0.0,
        0.0,
        1.0
      ],
      "name": "GLTF_SceneRootNode"
    },
    {
      "children": [
        4
      ],
      "matrix": [
        0.009999999776482582,
        0.0,
        0.0,
        0.0,
        0.0,
        0.009999999776482582,
        0.0,
        0.0,
        0.0,
        0.0,
        0.009999999776482582,
        0.0,
        0.0,
        0.0,
        0.0,
        1.0
      ],
      "name": "BABY_LION_HP_0"
    },
    {
      "mesh": 0,
      "name": "Object_4"
    }
  ],
  "samplers": [
    {
      "magFilter": 9729,
      "minFilter": 9987,
      "wrapS": 10497,
      "wrapT": 10497
    }
  ],
  "scene": 0,
  "scenes": [
    {
      "name": "Sketchfab_Scene",
      "nodes": [
        0
      ]
    }
  ],
  "textures": [
    {
      "sampler": 0,
      "source": 0
    },
    {
      "sampler": 0,
      "source": 1
    }
  ]
}
