{
  "accessors": [
    {
      "bufferView": 2,
      "componentType": 5126,
      "count": 2749,
      "max": [
        14.55737018585205,
        3.668800115585327,
        61.57046127319336
      ],
      "min": [
        -14.490309715270996,
        -4.381840229034424,
        1.5217000246047974
      ],
      "type": "VEC3"
    },
    {
      "bufferView": 2,
      "byteOffset": 32988,
      "componentType": 5126,
      "count": 2749,
      "max": [
        0.9997377395629883,
        1.0,
        0.997891902923584
      ],
      "min": [
        -0.9997372627258301,
        -0.999877393245697,
        -0.9999551177024841
      ],
      "type": "VEC3"
    },
    {
      "bufferView": 1,
      "componentType": 5126,
      "count": 2749,
      "max": [
        0.991919994354248,
        0.9994199872016907
      ],
      "min": [
        0.0007399999885819852,
        0.03790000081062317
      ],
      "type": "VEC2"
    },
    {
      "bufferView": 0,
      "componentType": 5125,
      "count": 13824,
      "type": "SCALAR"
    },
    {
      "bufferView": 2,
      "byteOffset": 65976,
      "componentType": 5126,
      "count": 1503,
      "max": [
        14.78419017791748,
        6.452400207519531,
        53.089599609375
      ],
      "min": [
        -14.784199714660645,
        -6.89870023727417,
        -1.3032000064849854
      ],
      "type": "VEC3"
    },
    {
      "bufferView": 2,
      "byteOffset": 84012,
      "componentType": 5126,
      "count": 1503,
      "max": [
        0.9991515278816223,
        0.999845027923584,
        0.9842816591262817
      ],
      "min": [
        -0.9991515278816223,
        -0.9996875524520874,
        -0.9999781250953674
      ],
      "type": "VEC3"
    },
    {
      "bufferView": 1,
      "byteOffset": 21992,
      "componentType": 5126,
      "count": 1503,
      "max": [
        0.9900699853897095,
        1.0
      ],
      "min": [
        0.0,
        0.003980000037699938
      ],
      "type": "VEC2"
    },
    {
      "bufferView": 0,
      "byteOffset": 55296,
      "componentType": 5125,
      "count": 7536,
      "type": "SCALAR"
    },
    {
      "bufferView": 2,
      "byteOffset": 102048,
      "componentType": 5126,
      "count": 30,
      "max": [
        1.8040200471878052,
        -3.1956799030303955,
        58.436851501464844
      ],
      "min": [
        0.8649399876594543,
        -3.490380048751831,
        58.018829345703125
      ],
      "type": "VEC3"
    },
    {
      "bufferView": 2,
      "byteOffset": 102408,
      "componentType": 5126,
      "count": 30,
      "max": [
        0.6446887850761414,
        -0.5486214756965637,
        0.8054414987564087
      ],
      "min": [
        -0.18903446197509766,
        -0.9954414367675781,
        -0.6601309776306152
      ],
      "type": "VEC3"
    },
    {
      "bufferView": 1,
      "byteOffset": 34016,
      "componentType": 5126,
      "count": 30,
      "max": [
        0.5987899899482727,
        0.8386399745941162
      ],
      "min": [
        0.5453900098800659,
        0.8166199922561646
      ],
      "type": "VEC2"
    },
    {
      "bufferView": 0,
      "byteOffset": 85440,
      "componentType": 5125,
      "count": 123,
      "type": "SCALAR"
    },
    {
      "bufferView": 2,
      "byteOffset": 102768,
      "componentType": 5126,
      "count": 27,
      "max": [
        -0.8852300047874451,
        -3.2246899604797363,
        58.43505859375
      ],
      "min": [
        -1.8248200416564941,
        -3.4584500789642334,
        58.02050018310547
      ],
      "type": "VEC3"
    },
    {
      "bufferView": 2,
      "byteOffset": 103092,
      "componentType": 5126,
      "count": 27,
      "max": [
        0.5374377965927124,
        -0.7052639722824097,
        0.5751613974571228
      ],
      "min": [
        -0.6080319881439209,
        -0.9998565316200256,
        -0.6657366156578064
      ],
      "type": "VEC3"
    },
    {
      "bufferView": 1,
      "byteOffset": 34256,
      "componentType": 5126,
      "count": 27,
      "max": [
        0.4503200054168701,
        0.8385000228881836
      ],
      "min": [
        0.39824000000953674,
        0.8164899945259094
      ],
      "type": "VEC2"
    },
    {
      "bufferView": 0,
      "byteOffset": 85932,
      "componentType": 5125,
      "count": 111,
      "type": "SCALAR"
    },
    {
      "bufferView": 2,
      "byteOffset": 103416,
      "componentType": 5126,
      "count": 541,
      "max": [
        5.301499843597412,
        4.646500110626221,
        63.135990142822266
      ],
      "min": [
        -6.010499954223633,
        -4.769499778747559,
        44.09468078613281
      ],
      "type": "VEC3"
    },
    {
      "bufferView": 2,
      "byteOffset": 109908,
      "componentType": 5126,
      "count": 541,
      "max": [
        0.9999614357948303,
        0.997767448425293,
        0.9990291595458984
      ],
      "min": [
        -0.9990756511688232,
        -0.9982753992080688,
        -0.8153766393661499
      ],
      "type": "VEC3"
    },
    {
      "bufferView": 1,
      "byteOffset": 34472,
      "componentType": 5126,
      "count": 541,
      "max": [
        0.9756900072097778,
        0.9917700290679932
      ],
      "min": [
        0.00795000046491623,
        0.06273999810218811
      ],
      "type": "VEC2"
    },
    {
      "bufferView": 0,
      "byteOffset": 86376,
      "componentType": 5125,
      "count": 2934,
      "type": "SCALAR"
    },
    {
      "bufferView": 2,
      "byteOffset": 116400,
      "componentType": 5126,
      "count": 4,
      "max": [
        -1.8711700439453125,
        -3.1436901092529297,
        58.258888244628906
      ],
      "min": [
        -1.9542900323867798,
        -3.243109941482544,
        58.13663864135742
      ],
      "type": "VEC3"
    },
    {
      "bufferView": 2,
      "byteOffset": 116448,
      "componentType": 5126,
      "count": 4,
      "max": [
        -0.7007725834846497,
        -0.39113849401474,
        -0.13276049494743347
      ],
      "min": [
        -0.7439567446708679,
        -0.7009225487709045,
        -0.5599921345710754
      ],
      "type": "VEC3"
    },
    {
      "bufferView": 1,
      "byteOffset": 38800,
      "componentType": 5126,
      "count": 4,
      "max": [
        0.058559998869895935,
        0.7835699915885925
      ],
      "min": [
        0.009340000338852406,
        0.3881799876689911
      ],
      "type": "VEC2"
    },
    {
      "bufferView": 0,
      "byteOffset": 98112,
      "componentType": 5125,
      "count": 6,
      "type": "SCALAR"
    }
  ],
  "asset": {
    "extras": {
      "author": "ItzDannio (https://sketchfab.com/ItzDannio)",
      "license": "CC-BY-4.0 (http://creativecommons.org/licenses/by/4.0/)",
      "source": "https://sketchfab.com/3d-models/josune-ereaga-from-the-josune-collectiontm-4a7d9bbe5e374fe88a79d18edc262522",
      "title": "Josune Ereaga (From the Josune Collection™)"
    },
    "generator": "Sketchfab-12.67.0",
    "version": "2.0"
  },
  "bufferViews": [
    {
      "buffer": 0,
      "byteLength": 98136,
      "name": "floatBufferViews",
      "target": 34963
    },
    {
      "buffer": 0,
      "byteLength": 38832,
      "byteOffset": 98136,
      "byteStride": 8,
      "name": "floatBufferViews",
      "target": 34962
    },
    {
      "buffer": 0,
      "byteLength": 116496,
      "byteOffset": 136968,
      "byteStride": 12,
      "name": "floatBufferViews",
      "target": 34962
    }
  ],
  "buffers": [
    {
      "byteLength": 253464,
      "uri": "scene.bin"
    }
  ],
  "images": [
    {
      "uri": "textures/body_baseColor.png"
    },
    {
      "uri": "textures/cloth_baseColor.png"
    },
    {
      "uri": "textures/eyeball_l_baseColor.png"
    },
    {
      "uri": "textures/eyeball_r_baseColor.png"
    },
    {
      "uri": "textures/hair_baseColor.png"
    },
    {
      "uri": "textures/eyeshade_baseColor.png"
    }
  ],
  "materials": [
    {
      "doubleSided": true,
      "name": "body",
      "pbrMetallicRoughness": {
        "baseColorTexture": {
          "index": 0
        },
        "metallicFactor": 0.0,
        "roughnessFactor": 0.6
      }
    },
    {
      "doubleSided": true,
      "name": "cloth",
      "pbrMetallicRoughness": {
        "baseColorTexture": {
          "index": 1
        },
        "metallicFactor": 0.0,
        "roughnessFactor": 0.6
      }
    },
    {
      "doubleSided": true,
      "name": "eyeball_l",
      "pbrMetallicRoughness": {
        "baseColorTexture": {
          "index": 2
        },
        "metallicFactor": 0.0,
        "roughnessFactor": 0.6
      }
    },
    {
      "doubleSided": true,
      "name": "eyeball_r",
      "pbrMetallicRoughness": {
        "baseColorTexture": {
          "index": 3
        },
        "metallicFactor": 0.0,
        "roughnessFactor": 0.6
      }
    },
    {
      "doubleSided": true,
      "name": "hair",
      "pbrMetallicRoughness": {
        "baseColorTexture": {
          "index": 4
        },
        "metallicFactor": 0.0,
        "roughnessFactor": 0.6
      }
    },
    {
      "doubleSided": true,
      "name": "eyeshade",
      "pbrMetallicRoughness": {
        "baseColorTexture": {
          "index": 5
        },
        "metallicFactor": 0.0,
        "roughnessFactor": 0.6
      }
    }
  ],
  "meshes": [
    {
      "name": "Josune",
      "primitives": [
        {
          "attributes": {
            "NORMAL": 1,
            "POSITION": 0,
            "TEXCOORD_0": 2
          },
          "indices": 3,
          "material": 0,
          "mode": 4
        }
      ]
    },
    {
      "name": "Josune",
      "primitives": [
        {
          "attributes": {
            "NORMAL": 5,
            "POSITION": 4,
            "TEXCOORD_0": 6
          },
          "indices": 7,
          "material": 1,
          "mode": 4
        }
      ]
    },
    {
      "name": "Josune",
      "primitives": [
        {
          "attributes": {
            "NORMAL": 9,
            "POSITION": 8,
            "TEXCOORD_0": 10
          },
          "indices": 11,
          "material": 2,
          "mode": 4
        }
      ]
    },
    {
      "name": "Josune",
      "primitives": [
        {
          "attributes": {
            "NORMAL": 13,
            "POSITION": 12,
            "TEXCOORD_0": 14
          },
          "indices": 15,
          "material": 3,
          "mode": 4
        }
      ]
    },
    {
      "name": "Josune",
      "primitives": [
        {
          "attributes": {
            "NORMAL": 17,
            "POSITION": 16,
            "TEXCOORD_0": 18
          },
          "indices": 19,
          "material": 4,
          "mode": 4
        }
      ]
    },
    {
      "name": "Josune",
      "primitives": [
        {
          "attributes": {
            "NORMAL": 21,
            "POSITION": 20,
            "TEXCOORD_0": 22
          },
          "indices": 23,
          "material": 5,
          "mode": 4
        }
      ]
    }
  ],
  "nodes": [
    {
      "children": [
        1
      ],
      "matrix": [
        1.0,
        0.0,
        0.0,
        0.0,
        0.0,
        2.220446049250313e-16,
        -1.0,
        0.0,
        0.0,
        1.0,
        2.220446049250313e-16,
        0.0,
        0.0,
        0.0,
        0.0,
        1.0
      ],
      "name": "Sketchfab_model"
    },
    {
      "children": [
        2,
        4
      ],
      "name": "Root"
    },
    {
      "children": [
        3
      ],
      "matrix": [
        -0.29086000000000006,
        0.9551700000000001,
        -0.05519000000000001,
        0.0,
        -0.7711,
        -0.19988000000000003,
        0.6045200000000001,
        0.0,
        0.5663900000000001,
        0.21839000000000003,
        0.7946700000000001,
        0.0,
        4.076250000000001,
        1.00545,
        5.903860000000001,
        1.0
      ],
      "name": "Lamp"
    },
    {
      "name": "Lamp"
    },
    {
      "children": [
        5,
        6,
        7,
        8,
        9,
        10
      ],
      "name": "Josune"
    },
    {
      "mesh": 0,
      "name": "Josune"
    },
    {
      "mesh": 1,
      "name": "Josune"
    },
    {
      "mesh": 2,
      "name": "Josune"
    },
    {
      "mesh": 3,
      "name": "Josune"
    },
    {
      "mesh": 4,
      "name": "Josune"
    },
    {
      "mesh": 5,
      "name": "Josune"
    }
  ],
  "samplers": [
    {
      "magFilter": 9729,
      "minFilter": 9987,
      "wrapS": 10497,
      "wrapT": 10497
    }
  ],
  "scene": 0,
  "scenes": [
    {
      "name": "Sketchfab_Scene",
      "nodes": [
        0
      ]
    }
  ],
  "textures": [
    {
      "sampler": 0,
      "source": 0
    },
    {
      "sampler": 0,
      "source": 1
    },
    {
      "sampler": 0,
      "source": 2
    },
    {
      "sampler": 0,
      "source": 3
    },
    {
      "sampler": 0,
      "source": 4
    },
    {
      "sampler": 0,
      "source": 5
    }
  ]
}
