{
  "accessors": [
    {
      "bufferView": 2,
      "componentType": 5126,
      "count": 14869,
      "max": [
        37.6047477722168,
        39.56731414794922,
        158.9123077392578
      ],
      "min": [
        -113.61299133300781,
        -0.06168043613433838,
        -68.83380889892578
      ],
      "type": "VEC3"
    },
    {
      "bufferView": 2,
      "byteOffset": 178428,
      "componentType": 5126,
      "count": 14869,
      "max": [
        0.9999165534973145,
        0.9999615550041199,
        0.999860405921936
      ],
      "min": [
        -0.9999855160713196,
        -0.9999498724937439,
        -0.9997493624687195
      ],
      "type": "VEC3"
    },
    {
      "bufferView": 1,
      "componentType": 5126,
      "count": 14869,
      "max": [
        0.9952399730682373,
        0.9955599904060364
      ],
      "min": [
        0.004369544796645641,
        0.00457000732421875
      ],
      "type": "VEC2"
    },
    {
      "bufferView": 1,
      "byteOffset": 118952,
      "componentType": 5126,
      "count": 14869,
      "max": [
        0.9952399730682373,
        0.9955599904060364
      ],
      "min": [
        0.004369544796645641,
        0.00457000732421875
      ],
      "type": "VEC2"
    },
    {
      "bufferView": 1,
      "byteOffset": 237904,
      "componentType": 5126,
      "count": 14869,
      "max": [
        0.9952399730682373,
        0.9955599904060364
      ],
      "min": [
        0.004369544796645641,
        0.00457000732421875
      ],
      "type": "VEC2"
    },
    {
      "bufferView": 0,
      "componentType": 5125,
      "count": 77370,
      "type": "SCALAR"
    }
  ],
  "asset": {
    "extras": {
      "author": "Xfdfgd (https://sketchfab.com/Xfdfgd)",
      "license": "CC-BY-4.0 (http://creativecommons.org/licenses/by/4.0/)",
      "source": "https://sketchfab.com/3d-models/alligator-1de18292eb6e433587e60becd942ef6b",
      "title": "Alligator"
    },
    "generator": "Sketchfab-15.10.0",
    "version": "2.0"
  },
  "bufferViews": [
    {
      "buffer": 0,
      "byteLength": 309480,
      "name": "floatBufferViews",
      "target": 34963
    },
    {
      "buffer": 0,
      "byteLength": 356856,
      "byteOffset": 309480,
      "byteStride": 8,
      "name": "floatBufferViews",
      "target": 34962
    },
    {
      "buffer": 0,
      "byteLength": 356856,
      "byteOffset": 666336,
      "byteStride": 12,
      "name": "floatBufferViews",
      "target": 34962
    }
  ],
  "buffers": [
    {
      "byteLength": 1023192,
      "uri": "scene.bin"
    }
  ],
  "extensionsRequired": [
    "KHR_materials_pbrSpecularGlossiness"
  ],
  "extensionsUsed": [
    "KHR_materials_pbrSpecularGlossiness"
  ],
  "images": [
    {
      "uri": "textures/1103_diffuse.png"
    },
    {
      "uri": "textures/1103_specularGlossiness.png"
    }
  ],
  "materials": [
    {
      "doubleSided": true,
      "extensions": {
        "KHR_materials_pbrSpecularGlossiness": {
          "diffuseFactor": [
            1.0,
            1.0,
            1.0,
            1.0
          ],
          "diffuseTexture": {
            "index": 0
          },
          "glossinessFactor": 1.0,
          "specularFactor": [
            1.0,
            1.0,
            1.0
          ],
          "specularGlossinessTexture": {
            "index": 1
          }
        }
      },
      "name": "1103"
    }
  ],
  "meshes": [
    {
      "name": "Object_0",
      "primitives": [
        {
          "attributes": {
            "NORMAL": 1,
            "POSITION": 0,
            "TEXCOORD_0": 2,
            "TEXCOORD_1": 3,
            "TEXCOORD_2": 4
          },
          "indices": 5,
          "material": 0,
          "mode": 4
        }
      ]
    }
  ],
  "nodes": [
    {
      "children": [
        1
      ],
      "matrix": [
        1.0,
        0.0,
        0.0,
        0.0,
        0.0,
        2.220446049250313e-16,
        -1.0,
        0.0,
        0.0,
        1.0,
        2.220446049250313e-16,
        0.0,
        0.0,
        0.0,
        0.0,
        1.0
      ],
      "name": "Sketchfab_model"
    },
    {
      "children": [
        2
      ],
      "name": "root"
    },
    {
      "children": [
        3
      ],
      "matrix": [
        1.0,
        0.0,
        0.0,
        0.0,
        0.0,
        2.220446049250313e-16,
        1.0,
        0.0,
        0.0,
        -1.0,
        2.220446049250313e-16,
        0.0,
        0.0,
        0.0,
        0.0,
        1.0
      ],
      "name": "GLTF_SceneRootNode"
    },
    {
      "children": [
        4
      ],
      "name": "root_0"
    },
    {
      "children": [
        5
      ],
      "matrix": [
        0.0033858460374176502,
        0.0,
        0.0,
        0.0,
        0.0,
        0.0033858460374176502,
        0.0,
        0.0,
        0.0,
        0.0,
        0.0033858460374176502,
        0.0,
        0.11867723613977432,
        -0.18079116940498352,
        0.23306018114089966,
        1.0
      ],
      "name": "node_id60_1"
    },
    {
      "mesh": 0,
      "name": "Object_5"
    }
  ],
  "samplers": [
    {
      "magFilter": 9729,
      "minFilter": 9987,
      "wrapS": 10497,
      "wrapT": 10497
    }
  ],
  "scene": 0,
  "scenes": [
    {
      "name": "Sketchfab_Scene",
      "nodes": [
        0
      ]
    }
  ],
  "textures": [
    {
      "sampler": 0,
      "source": 0
    },
    {
      "sampler": 0,
      "source": 1
    }
  ]
}
